<?xml version="1.0" encoding="UTF-8" standalone="no"?>
<!-- Uploaded to: SVG Repo, www.svgrepo.com, Generator: SVG Repo Mixer Tools -->

<svg
   width="32"
   height="32"
   viewBox="0 0 28 28"
   fill="none"
   version="1.1"
   id="svg3"
   xmlns="http://www.w3.org/2000/svg"
   xmlns:svg="http://www.w3.org/2000/svg">
  <defs
     id="defs3" />
  <path
     d="m 11.8489,22.6922 c -0.2627,0.0279 -0.498,-0.1639 -0.5257,-0.4284 l -0.8564,-8.1905 c -0.0276,-0.2644 0.1629,-0.5014 0.4256,-0.5292 l 0.4756,-0.0504 c 0.2627,-0.0278 0.4981,0.164 0.5257,0.4284 l 0.8564,8.1905 c 0.0277,0.2645 -0.1628,0.5014 -0.4255,0.5292 z"
     fill="#000000"
     id="path1"
     style="fill:#501616" />
  <path
     d="M 16.1533,22.6418 C 15.8906,22.614 15.7001,22.3771 15.7277,22.1126 l 0.8564,-8.1905 c 0.0277,-0.2644 0.263,-0.4562 0.5257,-0.4284 l 0.4756,0.0504 c 0.2627,0.0278 0.4533,0.2648 0.4256,0.5292 l -0.8564,8.1905 c -0.0276,0.2645 -0.263,0.4563 -0.5257,0.4284 z"
     fill="#000000"
     id="path2"
     style="fill:#501616" />
  <path
     clip-rule="evenodd"
     d="M 11.9233,1 C 11.3494,1 10.8306,1.34435 10.6045,1.87545 L 9.54244,4.37037 H 4.91304 C 3.8565,4.37037 3,5.23264 3,6.2963 v 2.4074 c 0,0.98153 0.72934,1.7916 1.67218,1.9108 L 7.62934,26.2259 C 7.71876,26.676 8.11133,27 8.56729,27 H 20.3507 c 0.4735,0 0.8757,-0.3487 0.9459,-0.8201 L 23.4467,10.5956 C 24.3313,10.4262 25,9.64356 25,8.7037 V 6.2963 C 25,5.23264 24.1435,4.37037 23.087,4.37037 H 18.4561 L 17.394,1.87545 C 17.1679,1.34435 16.6492,1 16.0752,1 Z M 16.3747,4.37037 16.0083,3.50956 C 15.8576,3.15549 15.5117,2.92593 15.1291,2.92593 h -2.2597 c -0.3826,0 -0.7284,0.22956 -0.8792,0.58363 l -0.3664,0.86081 z m 5.0947,6.68123 c 0.0334,-0.2408 -0.154,-0.4555 -0.3971,-0.4549 l -13.958,0.0318 c -0.25019,6e-4 -0.43845,0.2281 -0.39218,0.474 L 9.19806,24.259 c 0.08895,0.4727 0.50179,0.8151 0.98274,0.8151 h 8.4751 c 0.4993,0 0.9221,-0.3683 0.9906,-0.8628 z m 0.661,-2.3479 c 0.5283,0 0.9566,-0.43113 0.9566,-0.96296 V 7.25926 C 23.087,6.72743 22.6587,6.2963 22.1304,6.2963 H 5.86957 c -0.52828,0 -0.95653,0.43113 -0.95653,0.96296 v 0.48148 c 0,0.53183 0.42825,0.96296 0.95652,0.96296 z"
     fill="#000000"
     fill-rule="evenodd"
     id="path3"
     style="fill:#501616" />
</svg>
